<?xml version="1.0" standalone="no"?>
<!DOCTYPE svg PUBLIC "-//W3C//DTD SVG 20010904//EN"
 "http://www.w3.org/TR/2001/REC-SVG-20010904/DTD/svg10.dtd">
<svg width="160" height="160" viewBox="0 0 160 160" fill="none" xmlns="http://www.w3.org/2000/svg">
<path fill-rule="evenodd" clip-rule="evenodd" d="M160 80C160 124.183 124.183 160 80 160C35.8172 160 0 124.183 0 80C0 35.8172 35.8172 0 80 0C124.183 0 160 35.8172 160 80ZM132.282 65.8443L139.297 38.0103C130.753 25.9656 118.63 16.6372 104.479 11.5742L78.7755 25.3062L54.6793 11.8812C41.2432 16.8775 29.6853 25.7355 21.3545 37.1062L28.598 65.8443L7.79179 88.0859C9.03574 99.3202 12.8412 109.782 18.6112 118.875L47.1891 124.821L56.3686 148.724C63.7771 151.27 71.7271 152.653 80 152.653C88.0651 152.653 95.8234 151.339 103.072 148.913L112.325 124.821L141.463 118.758C147.335 109.465 151.158 98.747 152.297 87.2402L132.282 65.8443Z" fill="#F9F9F9"/>
<g clip-path="url(#clip0_269_2899)">
<path d="M108.571 53.2522V60.1035C108.571 62.0152 107.038 63.5598 105.141 63.5598H70.8658C67.6781 63.5598 65.09 66.1673 65.09 69.3788V106.748C65.09 108.659 63.5569 110.204 61.6595 110.204H54.8591C52.9617 110.204 51.4286 108.659 51.4286 106.748V69.4171C51.4286 58.5818 60.1491 49.7959 70.9037 49.7959H105.141C107.038 49.7959 108.571 51.3405 108.571 53.2522Z" fill="#F9F9F9"/>
<path d="M108.571 75.6567V96.4555C108.571 104.049 102.462 110.212 94.9175 110.212H77.4157C76.0268 110.212 74.8959 109.072 74.8959 107.673V98.9789C74.8959 97.5796 76.0268 96.4402 77.4157 96.4402H92.3902C93.7791 96.4402 94.91 95.3009 94.91 93.9015V89.413C94.91 88.0137 93.7791 86.8743 92.3902 86.8743H77.4157C76.0268 86.8743 74.8959 85.735 74.8959 84.3356V75.6415C74.8959 74.2421 76.0268 73.1028 77.4157 73.1028H106.052C107.441 73.1028 108.571 74.2421 108.571 75.6415V75.6567Z" fill="#F9F9F9"/>
</g>
<defs>
<clipPath id="clip0_269_2899">
<rect width="57.1429" height="60.4082" fill="white" transform="translate(51.4286 49.7959)"/>
</clipPath>
</defs>
</svg>

