<?xml version="1.0" standalone="no"?>
<!DOCTYPE svg PUBLIC "-//W3C//DTD SVG 20010904//EN"
 "http://www.w3.org/TR/2001/REC-SVG-20010904/DTD/svg10.dtd">
<svg width="84" height="84" viewBox="0 0 84 84" fill="none" xmlns="http://www.w3.org/2000/svg">
<g clip-path="url(#clip0_255_2827)">
<path d="M61 24.2886V28.8253C61 30.0911 59.9805 31.1139 58.7187 31.1139H35.9258C33.806 31.1139 32.0849 32.8405 32.0849 34.9671V59.7114C32.0849 60.9772 31.0653 62 29.8036 62H25.2813C24.0195 62 23 60.9772 23 59.7114V34.9924C23 27.8177 28.7992 22 35.951 22H58.7187C59.9805 22 61 23.0228 61 24.2886Z" fill="white"/>
<path d="M61 39.124V52.8962C61 57.924 56.9371 62.005 51.9202 62.005H40.2815C39.3579 62.005 38.6058 61.2506 38.6058 60.324V54.567C38.6058 53.6405 39.3579 52.886 40.2815 52.886H50.2395C51.1631 52.886 51.9152 52.1316 51.9152 51.205V48.2329C51.9152 47.3063 51.1631 46.5519 50.2395 46.5519H40.2815C39.3579 46.5519 38.6058 45.7974 38.6058 44.8708V39.1139C38.6058 38.1873 39.3579 37.4329 40.2815 37.4329H59.3244C60.248 37.4329 61 38.1873 61 39.1139V39.124Z" fill="white"/>
</g>
<circle cx="42" cy="42" r="38" stroke="white" stroke-width="8"/>
<defs>
<clipPath id="clip0_255_2827">
<rect width="38" height="40" fill="white" transform="translate(23 22)"/>
</clipPath>
</defs>
</svg>
